<?xml version="1.0" encoding="utf-8"?>
<!-- Generator: Adobe Illustrator 16.0.0, SVG Export Plug-In . SVG Version: 6.00 Build 0)  -->
<!DOCTYPE svg PUBLIC "-//W3C//DTD SVG 1.1//EN" "http://www.w3.org/Graphics/SVG/1.1/DTD/svg11.dtd">
<svg version="1.1" id="Layer_1" xmlns="http://www.w3.org/2000/svg" xmlns:xlink="http://www.w3.org/1999/xlink" x="0px" y="0px"
	 width="100px" height="100px" viewBox="0 0 100 100" enable-background="new 0 0 100 100" xml:space="preserve">
<g>
	<path fill="#FFFFFF" d="M12.435,91.296c-1.086,0.647-2.201,1.312-3.258,1.95l-0.27-0.27l-1.708-1.709l-0.046-0.044
		c0.757-1.329,1.567-2.743,2.336-4.089c1.104-1.931,2.121-3.709,2.781-4.857l-0.981-0.982l-5.399,9.438L4.188,93.71l-3.54,6.191
		l6.085-3.645l1.833-1.093l10.378-6.211l-0.971-0.974C16.768,88.702,14.67,89.958,12.435,91.296z"/>
	<path fill="#FFFFFF" d="M98.649,1.527c-2.035-2.036-5.336-2.036-7.372,0l7.371,7.37C100.685,6.861,100.685,3.561,98.649,1.527z"/>
	<polygon fill="#FFFFFF" points="10.132,19.179 18.114,11.197 7.176,5.581 4.517,8.24 	"/>
	<path fill="#FFFFFF" d="M26.374,35.419l1.331-1.329l-6.356-6.356c-1.466-1.467-1.466-3.854,0-5.322
		c1.468-1.466,3.855-1.466,5.322,0l6.355,6.356l1.33-1.331L20.773,13.856l-7.981,7.982L26.374,35.419z"/>
	<path fill="#FFFFFF" d="M5.846,4.251l-2.62-2.62c-0.734-0.734-1.925-0.733-2.66,0c-0.734,0.735-0.734,1.926,0,2.661L3.187,6.91
		L5.846,4.251z"/>
	<path fill="#FFFFFF" d="M22.681,23.746c-0.734,0.733-0.733,1.925,0,2.659l15.37,15.371c0.733,0.733,1.925,0.733,2.66,0
		c0.734-0.735,0.734-1.927,0-2.66L25.34,23.746C24.605,23.011,23.414,23.011,22.681,23.746z"/>
	<path fill="#FFFFFF" d="M91.906,96.673c0,0,5.14,4.564,6.702,2.999c1.563-1.562-3-6.699-3-6.699L91.906,96.673z"/>
	<path fill="#FFFFFF" d="M43.483,36.588c-0.042-0.042-0.068-0.091-0.112-0.135L37.016,30.1l-1.33,1.329l6.354,6.355
		c1.467,1.467,1.467,3.854,0,5.321c-1.467,1.468-3.854,1.468-5.322,0l-6.355-6.355l-1.329,1.331l6.354,6.355
		c0.043,0.043,0.092,0.07,0.134,0.111L88.19,95.072l5.814-5.818L43.483,36.588z"/>
	<polygon fill="#FFFFFF" points="96.993,10.554 95.083,8.645 57.312,46.418 59.178,48.369 	"/>
	<polygon fill="#FFFFFF" points="18.151,85.579 20.06,87.487 47.071,60.477 45.134,58.596 	"/>
	<polygon fill="#FFFFFF" points="54.739,43.728 56.41,45.474 94.16,7.723 92.452,6.014 	"/>
	<polygon fill="#FFFFFF" points="44.197,57.687 42.464,56.002 15.521,82.947 17.229,84.656 	"/>
	<polygon fill="#FFFFFF" points="12.688,80.116 14.597,82.024 41.527,55.093 39.59,53.213 	"/>
	<polygon fill="#FFFFFF" points="91.529,5.092 89.621,3.182 51.971,40.833 53.838,42.784 	"/>
</g>
</svg>
