<?xml version="1.0" encoding="utf-8"?>
<!-- Generator: Adobe Illustrator 16.0.0, SVG Export Plug-In . SVG Version: 6.00 Build 0)  -->
<!DOCTYPE svg PUBLIC "-//W3C//DTD SVG 1.1//EN" "http://www.w3.org/Graphics/SVG/1.1/DTD/svg11.dtd">
<svg version="1.1" id="Layer_1" xmlns="http://www.w3.org/2000/svg" xmlns:xlink="http://www.w3.org/1999/xlink" x="0px" y="0px"
	 width="100px" height="100px" viewBox="0 0 100 100" enable-background="new 0 0 100 100" xml:space="preserve">
<g>
	<path fill="#FFFFFF" stroke="#FFFFFF" stroke-miterlimit="10" d="M56.836,36.974c-3.096,0-5.252,1.307-6.471,3.92
		c-1.217-2.613-3.374-3.92-6.47-3.92c-2.339,0-4.325,0.738-5.958,2.214c-1.706,1.549-2.559,3.461-2.559,5.736
		c0,2.42,1,4.926,2.998,7.515c1.121,1.477,3.058,3.472,5.812,5.99c3.386,3.121,5.447,4.792,6.177,5.009
		c0.488-0.097,1.548-0.847,3.182-2.251c0.778-0.677,1.79-1.585,3.032-2.723c3.705-3.413,6.095-6.073,7.165-7.986
		c1.073-1.911,1.61-3.764,1.61-5.554c0-2.274-0.854-4.187-2.561-5.736C61.162,37.712,59.176,36.974,56.836,36.974z"/>
	<g>
		<path fill="#FFFFFF" stroke="#FFFFFF" stroke-miterlimit="10" d="M65.163,35.958L100,1.361l-1.056-1.05L63.961,35.054
			C64.374,35.329,64.774,35.63,65.163,35.958z"/>
		<path fill="#FFFFFF" stroke="#FFFFFF" stroke-miterlimit="10" d="M59.959,60.777l38.985,38.717l1.056-1.05L61.038,59.752
			C60.691,60.085,60.333,60.428,59.959,60.777z"/>
		<path fill="#FFFFFF" stroke="#FFFFFF" stroke-miterlimit="10" d="M39.415,59.429L0.125,98.446l1.056,1.048l39.314-39.04
			C40.12,60.103,39.756,59.761,39.415,59.429z"/>
		<path fill="#FFFFFF" stroke="#FFFFFF" stroke-miterlimit="10" d="M36.417,35.299L1.185,0.311L0.127,1.359l35.119,34.877
			C35.622,35.896,36.013,35.585,36.417,35.299z"/>
	</g>
</g>
</svg>
