<?xml version="1.0" encoding="utf-8"?>
<!-- Generator: Adobe Illustrator 16.0.0, SVG Export Plug-In . SVG Version: 6.00 Build 0)  -->
<!DOCTYPE svg PUBLIC "-//W3C//DTD SVG 1.1//EN" "http://www.w3.org/Graphics/SVG/1.1/DTD/svg11.dtd">
<svg version="1.1" id="Layer_1" xmlns="http://www.w3.org/2000/svg" xmlns:xlink="http://www.w3.org/1999/xlink" x="0px" y="0px"
	 width="100px" height="100px" viewBox="0 0 100 100" enable-background="new 0 0 100 100" xml:space="preserve">
<g>
	<path fill="#FFFFFF" d="M30.213,63.567c0.312,0.57,0.579,1.107,0.801,1.615c0.222,0.505,0.336,1.008,0.336,1.518
		c0,1.076-0.412,1.979-1.233,2.706c-0.826,0.728-1.899,1.09-3.222,1.09c-0.883,0-1.737-0.159-2.558-0.472
		c-1.455-1.013-3.018-2.171-4.687-3.465c-1.677-1.3-3.399-2.612-5.162-3.938c-2.211-1.646-4.469-3.325-6.775-5.031
		c-2.303-1.708-4.338-3.198-6.105-4.461C0.535,52.055,0,51.01,0,49.997c0-1.326,0.724-2.53,2.176-3.606H2.08
		c0.254-0.186,0.948-0.728,2.089-1.613c1.135-0.885,2.458-1.93,3.972-3.133c1.523-1.198,3.145-2.48,4.88-3.841
		c1.737-1.358,3.364-2.639,4.878-3.843c1.518-1.198,2.828-2.23,3.929-3.083c1.107-0.853,1.813-1.375,2.13-1.566
		c1.011-0.382,1.867-0.567,2.556-0.567c1.328,0,2.403,0.375,3.227,1.135c0.816,0.758,1.225,1.675,1.225,2.751
		c0,1.268-0.376,2.313-1.133,3.134c-1.075,0.885-2.465,1.995-4.17,3.32c-1.705,1.331-3.441,2.656-5.204,3.986
		c-1.645,1.268-3.254,2.516-4.831,3.751c-1.583,1.232-2.875,2.263-3.886,3.085l18.28,13.568L30.213,63.567z"/>
	<path fill="#FFFFFF" d="M59.665,17.161c1.197-1.766,2.657-2.656,4.356-2.656c1.201,0,2.244,0.382,3.128,1.14
		c0.883,0.758,1.327,1.771,1.327,3.038c0,0.568-0.1,1.076-0.289,1.516L50.102,62.335c-1.645,3.798-3.317,7.657-5.022,11.577
		c-1.704,3.924-3.381,7.784-5.016,11.58c-0.631,0.881-1.348,1.504-2.131,1.849c-0.793,0.35-1.537,0.522-2.226,0.522
		c-1.201,0-2.229-0.368-3.082-1.09c-0.852-0.732-1.273-1.79-1.273-3.179c0-0.51,0.032-0.918,0.09-1.235L49.44,40.696
		c1.636-3.856,3.341-7.794,5.113-11.818C56.315,24.868,58.024,20.963,59.665,17.161z"/>
	<path fill="#FFFFFF" d="M87.99,49.906l-8.621-6.836c-1.706-1.33-3.429-2.67-5.163-4.032c-1.735-1.357-3.113-2.485-4.12-3.37
		c-0.82-0.885-1.233-1.898-1.233-3.039c0-1.076,0.426-1.993,1.284-2.751c0.847-0.76,1.906-1.135,3.167-1.135
		c0.692,0,1.517,0.153,2.466,0.471c0.378,0.187,1.292,0.855,2.746,1.993c1.452,1.142,3.123,2.436,5.019,3.893
		c1.894,1.453,3.835,2.988,5.824,4.601c1.989,1.611,3.711,2.988,5.162,4.133l3.32,2.556H97.74c1.391,1.14,2.083,2.343,2.083,3.606
		c0,1.013-0.47,2.025-1.416,3.039l-11.181,8.352L75.58,69.929c-0.885,0.378-1.771,0.567-2.659,0.567
		c-1.258,0-2.313-0.362-3.171-1.09c-0.847-0.728-1.273-1.63-1.273-2.706c0-0.95,0.376-1.958,1.134-3.033L87.99,49.906z"/>
</g>
</svg>
