<?xml version="1.0" encoding="utf-8"?>
<!-- Generator: Adobe Illustrator 16.0.0, SVG Export Plug-In . SVG Version: 6.00 Build 0)  -->
<!DOCTYPE svg PUBLIC "-//W3C//DTD SVG 1.1//EN" "http://www.w3.org/Graphics/SVG/1.1/DTD/svg11.dtd">
<svg version="1.1" id="Layer_1" xmlns="http://www.w3.org/2000/svg" xmlns:xlink="http://www.w3.org/1999/xlink" x="0px" y="0px"
	 width="300px" height="69.941px" viewBox="0 0 300 69.941" enable-background="new 0 0 300 69.941" xml:space="preserve">
<g>
	<path fill-rule="evenodd" clip-rule="evenodd" fill="#D2D2D2" d="M299.383,59.415c-0.084-2.87-6.992-5.858-9.074-8.547
		c-1.441-1.863-2.154-4.056-3.408-5.795c-1.652-2.293-3.014-3.871-4.295-5.37c-4.514-1.524-12.088-3.386-11.291-7.71
		c0.385-2.099,4.1-2.548,5.799-3.848c1.078-0.82,2.732-2.845,4.049-4.319c0.676-0.757,0.705-1.877,1.375-2.616
		c0.654-0.714,2.004-1.031,2.676-1.707c2.85-2.861,4.936-6.747,7.668-9.092c2.412-2.07,6.891-2.438,5.873-7.368
		c-3.902-3.672-14.221-3.266-20.203-2.607c-3.863,0.425-8.061-0.272-11.891,0.2c-1.312,0.166-2.676,1.013-3.988,1.243
		c-2.896,0.509-6.17,0.379-9.262,0.696c-10.262,1.045-19.971,1.412-30.412,1.59c-13.799,0.236-28.309,0.542-44.023-0.443
		c-7.594-0.477-15.053,0.431-22.455-0.011c-7.759-0.459-14.946-0.429-22.448-0.45c-1.481-0.003-2.866,0.731-4.419,0.793
		c-2.29,0.088-4.762-0.663-7.032-0.581c-2.107,0.074-4.026,0.659-6.182,0.755c-4.849,0.22-9.898-0.554-14.524-0.292
		c-2.68,0.153-5.307,0.977-7.948,1.163c-8.436,0.589-17.01,0.887-25.114,0.817C47.462,5.731,23.223,5.529,1.089,3.676
		c0.491,4.488,4.315,6.962,6.398,10.256c2.131,3.368,3.103,7.331,5.509,10.678c2.541,3.538,8.445,5.544,8.604,10.298
		c0.1,3.093-2.208,4.921-4.564,7.834c-1.873,2.314-3.884,4.65-5.862,6.928C9.258,51.88-0.611,60.14,0.741,64.871
		c1.371,4.784,9.285,2.626,13.611,2.034c8.105-1.107,17.911-0.415,24.205,0.487c6.139-2.038,11.617,0.46,17.617-0.087
		c4.869-0.444,9.745-0.875,14.989-1.021c3.981-0.109,8.177-0.22,11.885,0.237c4.333,0.539,8.773,0.568,13.633,0.715
		c1.282,0.04,2.558,0.887,3.944,0.96c1.417,0.077,2.708-0.894,3.979-0.801c1.354,0.102,2.456,0.797,3.943,0.96
		c1.2,0.133,2.596,0.035,3.961,0.081c17.289,0.587,38.027,1.834,53.248,1.507c8.131-0.171,19.666-1.354,29.975-1.599
		c3.09-0.075,6.32,0.448,9.242,0.185c1.592-0.143,2.869-0.767,4.422-0.789c7.027-0.119,14.852,0.754,22.883,0.457
		c13.182-0.491,26.998-2.265,38.365-2.754c1.855-0.079,3.711-0.741,5.299-0.774C281.412,64.562,299.572,65.954,299.383,59.415z"/>
</g>
</svg>
