<?xml version="1.0" encoding="utf-8"?>
<!-- Generator: Adobe Illustrator 16.0.0, SVG Export Plug-In . SVG Version: 6.00 Build 0)  -->
<!DOCTYPE svg PUBLIC "-//W3C//DTD SVG 1.1//EN" "http://www.w3.org/Graphics/SVG/1.1/DTD/svg11.dtd">
<svg version="1.1" id="Layer_1" xmlns="http://www.w3.org/2000/svg" xmlns:xlink="http://www.w3.org/1999/xlink" x="0px" y="0px"
	 width="100px" height="100px" viewBox="0 0 100 100" enable-background="new 0 0 100 100" xml:space="preserve">
<g>
	<path fill="#FFFFFF" d="M49.281,83.694c-2.627,0-4.758,2.13-4.758,4.759c0,2.623,2.131,4.752,4.758,4.752
		c2.623,0,4.755-2.129,4.755-4.752C54.036,85.824,51.904,83.694,49.281,83.694z"/>
	<path fill="#FFFFFF" d="M42.832,8.308h6.003c0.638,0,1.153-0.516,1.153-1.153V5.307c0-0.638-0.516-1.154-1.153-1.154h-6.003
		c-0.636,0-1.152,0.516-1.152,1.154v1.848C41.68,7.792,42.196,8.308,42.832,8.308z"/>
	<path fill="#FFFFFF" d="M29.22,78.916h41.535V16.613H29.22V78.916z M65.417,71.837c0,1.055-0.431,1.904-0.958,1.904h-6.591
		c-0.53,0-0.958-0.85-0.958-1.904V60.02c0-1.047,0.428-1.906,0.958-1.906h6.591c0.527,0,0.958,0.859,0.958,1.906V71.837z
		 M56.91,23.866c0-1.05,0.428-1.901,0.958-1.901h6.591c0.527,0,0.958,0.851,0.958,1.901v11.816c0,1.055-0.431,1.906-0.958,1.906
		h-6.591c-0.53,0-0.958-0.851-0.958-1.906V23.866z M34.561,23.866c0-1.05,0.967-1.901,2.155-1.901h14.866
		c1.188,0,2.153,0.851,2.153,1.901v11.816c0,1.055-0.965,1.906-2.153,1.906H36.716c-1.188,0-2.155-0.851-2.155-1.906V23.866z
		 M34.561,41.369c0-1.05,0.967-1.908,2.155-1.908h26.552c1.184,0,2.149,0.857,2.149,1.908v11.885c0,1.053-0.966,1.906-2.149,1.906
		H36.716c-1.188,0-2.155-0.854-2.155-1.906V41.369z M34.561,60.02c0-1.047,0.967-1.906,2.155-1.906h14.866
		c1.188,0,2.153,0.859,2.153,1.906v11.817c0,1.055-0.965,1.904-2.153,1.904H36.716c-1.188,0-2.155-0.85-2.155-1.904V60.02z"/>
	<path fill="#FFFFFF" d="M67.622,0H32.35c-4.022,0-7.283,3.257-7.283,7.281v85.123c0,4.024,3.261,7.281,7.283,7.281h35.272
		c4.026,0,7.285-3.257,7.285-7.281V7.281C74.907,3.257,71.648,0,67.622,0z M45.833,5.307c0-0.638,0.515-1.154,1.151-1.154h6.004
		c0.636,0,1.151,0.516,1.151,1.154v1.848c0,0.638-0.516,1.153-1.151,1.153h-6.004c-0.636,0-1.151-0.516-1.151-1.153V5.307z
		 M49.281,93.205c-2.627,0-4.758-2.129-4.758-4.752c0-2.629,2.131-4.759,4.758-4.759c2.623,0,4.755,2.13,4.755,4.759
		C54.036,91.076,51.904,93.205,49.281,93.205z M70.755,78.916H29.22V16.613h41.535V78.916z"/>
	<path fill="#FFFFFF" d="M12.426,41.247c-0.258-0.26-0.688-0.26-0.957,0v4.617H-0.123v7.967H11.47v4.605
		c0.269,0.26,0.699,0.26,0.957,0l8.117-8.119c0.264-0.26,0.264-0.689,0-0.949L12.426,41.247z"/>
	<path fill="#FFFFFF" d="M88.062,45.863v-4.617c-0.26-0.26-0.689-0.26-0.954,0l-8.114,8.121c-0.264,0.26-0.264,0.689,0,0.949
		l8.114,8.119c0.265,0.26,0.694,0.26,0.954,0V53.83h11.598v-7.967H88.062z"/>
	<path fill="#FFFFFF" d="M36.716,55.16h26.552c1.184,0,2.149-0.854,2.149-1.906V41.369c0-1.05-0.966-1.908-2.149-1.908H36.716
		c-1.188,0-2.155,0.857-2.155,1.908v11.885C34.561,54.307,35.528,55.16,36.716,55.16z"/>
	<path fill="#FFFFFF" d="M36.716,37.588h14.866c1.188,0,2.153-0.851,2.153-1.906V23.866c0-1.05-0.965-1.901-2.153-1.901H36.716
		c-1.188,0-2.155,0.851-2.155,1.901v11.816C34.561,36.737,35.528,37.588,36.716,37.588z"/>
	<path fill="#FFFFFF" d="M36.716,73.741h14.866c1.188,0,2.153-0.85,2.153-1.904V60.02c0-1.047-0.965-1.906-2.153-1.906H36.716
		c-1.188,0-2.155,0.859-2.155,1.906v11.817C34.561,72.892,35.528,73.741,36.716,73.741z"/>
	<path fill="#FFFFFF" d="M57.868,37.588h6.591c0.527,0,0.958-0.851,0.958-1.906V23.866c0-1.05-0.431-1.901-0.958-1.901h-6.591
		c-0.53,0-0.958,0.851-0.958,1.901v11.816C56.91,36.737,57.338,37.588,57.868,37.588z"/>
	<path fill="#FFFFFF" d="M64.459,58.113h-6.591c-0.53,0-0.958,0.859-0.958,1.906v11.817c0,1.055,0.428,1.904,0.958,1.904h6.591
		c0.527,0,0.958-0.85,0.958-1.904V60.02C65.417,58.973,64.986,58.113,64.459,58.113z"/>
</g>
</svg>
