<?xml version="1.0" encoding="utf-8"?>
<!-- Generator: Adobe Illustrator 16.0.0, SVG Export Plug-In . SVG Version: 6.00 Build 0)  -->
<!DOCTYPE svg PUBLIC "-//W3C//DTD SVG 1.1//EN" "http://www.w3.org/Graphics/SVG/1.1/DTD/svg11.dtd">
<svg version="1.1" id="Layer_1" xmlns="http://www.w3.org/2000/svg" xmlns:xlink="http://www.w3.org/1999/xlink" x="0px" y="0px"
	 width="100px" height="100px" viewBox="0 0 100 100" enable-background="new 0 0 100 100" xml:space="preserve">
<g>
	<path display="none" fill="#FFFFFF" d="M49.622,83.694c-2.627,0-4.758,2.13-4.758,4.759c0,2.623,2.131,4.752,4.758,4.752
		c2.623,0,4.755-2.129,4.755-4.752C54.377,85.824,52.245,83.694,49.622,83.694z"/>
	<path fill="#FFFFFF" d="M43.173,8.308h6.003c0.638,0,1.153-0.516,1.153-1.153V5.307c0-0.638-0.516-1.154-1.153-1.154h-6.003
		c-0.636,0-1.152,0.516-1.152,1.154v1.848C42.021,7.792,42.537,8.308,43.173,8.308z"/>
	<path display="none" fill="#FFFFFF" d="M29.561,78.916h41.535V16.613H29.561V78.916z M65.758,71.837
		c0,1.055-0.431,1.904-0.958,1.904h-6.591c-0.53,0-0.958-0.85-0.958-1.904V60.02c0-1.047,0.428-1.906,0.958-1.906H64.8
		c0.527,0,0.958,0.859,0.958,1.906V71.837z M57.251,23.866c0-1.05,0.428-1.901,0.958-1.901H64.8c0.527,0,0.958,0.851,0.958,1.901
		v11.816c0,1.055-0.431,1.906-0.958,1.906h-6.591c-0.53,0-0.958-0.851-0.958-1.906V23.866z M34.901,23.866
		c0-1.05,0.967-1.901,2.155-1.901h14.866c1.188,0,2.153,0.851,2.153,1.901v11.816c0,1.055-0.965,1.906-2.153,1.906H37.057
		c-1.188,0-2.155-0.851-2.155-1.906V23.866z M34.901,41.369c0-1.05,0.967-1.908,2.155-1.908h26.552c1.184,0,2.149,0.857,2.149,1.908
		v11.885c0,1.053-0.966,1.906-2.149,1.906H37.057c-1.188,0-2.155-0.854-2.155-1.906V41.369z M34.901,60.02
		c0-1.047,0.967-1.906,2.155-1.906h14.866c1.188,0,2.153,0.859,2.153,1.906v11.817c0,1.055-0.965,1.904-2.153,1.904H37.057
		c-1.188,0-2.155-0.85-2.155-1.904V60.02z"/>
	<path fill="#FFFFFF" d="M67.963,0H32.691c-4.022,0-7.283,3.257-7.283,7.281v85.123c0,4.024,3.261,7.281,7.283,7.281h35.272
		c4.026,0,7.285-3.257,7.285-7.281V7.281C75.248,3.257,71.989,0,67.963,0z M46.174,5.307c0-0.638,0.515-1.154,1.151-1.154h6.004
		c0.636,0,1.151,0.516,1.151,1.154v1.848c0,0.638-0.516,1.153-1.151,1.153h-6.004c-0.636,0-1.151-0.516-1.151-1.153V5.307z
		 M49.622,93.205c-2.627,0-4.758-2.129-4.758-4.752c0-2.629,2.131-4.759,4.758-4.759c2.623,0,4.755,2.13,4.755,4.759
		C54.377,91.076,52.245,93.205,49.622,93.205z M71.096,78.916H29.561V16.613h41.535V78.916z"/>
	<path fill="#FFFFFF" d="M12.767,41.247c-0.258-0.26-0.688-0.26-0.957,0v4.617H0.218v7.967h11.592v4.605
		c0.269,0.26,0.699,0.26,0.957,0l8.117-8.119c0.264-0.26,0.264-0.689,0-0.949L12.767,41.247z"/>
	<path fill="#FFFFFF" d="M88.402,45.863v-4.617c-0.26-0.26-0.689-0.26-0.954,0l-8.114,8.121c-0.264,0.26-0.264,0.689,0,0.949
		l8.114,8.119c0.265,0.26,0.694,0.26,0.954,0V53.83H100v-7.967H88.402z"/>
	<path fill="#FFFFFF" d="M37.057,55.16h26.552c1.184,0,2.149-0.854,2.149-1.906V41.369c0-1.05-0.966-1.908-2.149-1.908H37.057
		c-1.188,0-2.155,0.857-2.155,1.908v11.885C34.901,54.307,35.869,55.16,37.057,55.16z"/>
	<path fill="#FFFFFF" d="M37.057,37.588h14.866c1.188,0,2.153-0.851,2.153-1.906V23.866c0-1.05-0.965-1.901-2.153-1.901H37.057
		c-1.188,0-2.155,0.851-2.155,1.901v11.816C34.901,36.737,35.869,37.588,37.057,37.588z"/>
	<path fill="#FFFFFF" d="M37.057,73.741h14.866c1.188,0,2.153-0.85,2.153-1.904V60.02c0-1.047-0.965-1.906-2.153-1.906H37.057
		c-1.188,0-2.155,0.859-2.155,1.906v11.817C34.901,72.892,35.869,73.741,37.057,73.741z"/>
	<path fill="#FFFFFF" d="M58.209,37.588H64.8c0.527,0,0.958-0.851,0.958-1.906V23.866c0-1.05-0.431-1.901-0.958-1.901h-6.591
		c-0.53,0-0.958,0.851-0.958,1.901v11.816C57.251,36.737,57.679,37.588,58.209,37.588z"/>
	<path fill="#FFFFFF" d="M64.8,58.113h-6.591c-0.53,0-0.958,0.859-0.958,1.906v11.817c0,1.055,0.428,1.904,0.958,1.904H64.8
		c0.527,0,0.958-0.85,0.958-1.904V60.02C65.758,58.973,65.327,58.113,64.8,58.113z"/>
</g>
</svg>
