<?xml version="1.0" encoding="utf-8"?>
<!-- Generator: Adobe Illustrator 16.0.0, SVG Export Plug-In . SVG Version: 6.00 Build 0)  -->
<!DOCTYPE svg PUBLIC "-//W3C//DTD SVG 1.1//EN" "http://www.w3.org/Graphics/SVG/1.1/DTD/svg11.dtd">
<svg version="1.1" id="Layer_1" xmlns="http://www.w3.org/2000/svg" xmlns:xlink="http://www.w3.org/1999/xlink" x="0px" y="0px"
	 width="200px" height="200px" viewBox="0 0 200 200" enable-background="new 0 0 200 200" xml:space="preserve">
<path id="_x3C_white_x5F_circle_x3E_" fill="#FFFFFF" d="M188.596,96.393c0,47.68-39.352,86.33-87.895,86.33
	c-12.862,0-25.08-2.715-36.09-7.589c-22-9.743-39.183-28.118-47.075-50.731c-3.066-8.78-4.73-18.207-4.73-28.009
	c0-22.699,8.919-43.351,23.502-58.762c16.05-16.959,27.349-27.174,64.393-27.569c21.98,0,30.755,5.433,57.484,21.023
	C182.234,48.046,188.596,70.301,188.596,96.393z"/>
<rect x="42.443" y="28.968" fill="none" width="125.967" height="113.8"/>
<text transform="matrix(1 0 0 1 46.4434 140.249)" fill="#ACE3E2" font-family="'ThirstyRoughReg'" font-size="154.5609">m</text>
<g id="Bumpy">
	<g>
		<g>
			<g>
				<path fill="#636363" d="M101.189,189.936c0.1,0.217,0.209,0.416,0.386,0.613c0.243,0.266,0.426,0.605,0.723,0.781
					c0.288,0.17,0.589,0.391,0.902,0.499c1.034,0.368,2.413,0.514,3.002,0.735c0.757,0.291,1.058,0.088,2.01,0.172
					c0.74,0.056,1.675,0.211,2.271,0.103c0.619-0.118,1.554-0.646,1.707-0.706c0.598-0.23,0.832-0.359,1.194-0.682
					c0.974-0.861,1.199-2.023,2.228-2.479c0.757,1,2.392,1.652,3.947,1.557c1.48-0.071,4.269-1.168,4.993-1.885
					c0.111-0.106,0.577-0.922,0.569-0.972c-0.048-0.313,0.13-0.159,0.186-0.329c0.334-1.01,0.295-2.074,1.213-2.551
					c1.252,0.879,1.963,2.193,3.814,2.266c1.646,0.08,5.104-1.533,6.166-2.139c0.212-0.113,0.512-0.127,0.704-0.273
					c0.092-0.065,0.428-0.68,0.537-0.793c0.903-0.943,1.754-1.845,2.237-2.688c1.336,0.266,2.467,0.771,4.164,0.414
					c2.246-0.479,4.547-2.176,7.059-3.533c0.581-1.074,1.146-2.046,1.556-3.143c0.397-1.076,0.421-2.312,1.103-3.249
					c0.736-0.444,1.231,0.278,1.953-0.081c1.156,0.197,2.26-0.475,3.104-1.399c0.845-0.919,1.437-2.084,1.644-2.86
					c0.252-0.932,0.144-1.955,0.662-2.592c1.193-0.072,2.406,0.721,3.76,0.504c0.246-0.039,0.539-0.259,0.726-0.311
					c0.438-0.129,0.865-0.143,1.263-0.477c0.192-0.156,0.467-0.104,0.538-0.148c2.011-1.369,3.041-3.865,3.535-5.1
					c0.164-0.389,0.438-0.565,0.531-0.963c0.387-1.771-0.552-2.89,0.084-4.408c0.856-0.37,2.155-1.053,3.315-1.952
					c1.162-0.894,2.178-2.007,2.484-3.114c0.176-0.615,0.125-1.174,0.154-1.564c0.025-0.299,0.213-0.479,0.238-0.809
					c0.028-0.372-0.23-1.083-0.226-1.499c0.019-0.69-0.092-1.1,0.426-1.603c1.396-0.473,2.99,0.111,4.314-0.342
					c0.116-0.039,0.163-0.385,0.271-0.459c0.164-0.125,0.49,0.109,0.672-0.18c0.168-0.261,0.193-0.011,0.34-0.089
					c0.783-0.417,1.609-1.075,2.131-1.831c1.166-1.667,1.896-4.963,1.97-6.434c0.021-0.368-0.121-0.684-0.121-0.986
					c0-0.417,0.256-0.725,0.194-1.115c-0.135-0.897-0.786-1.857-1.094-2.623c-0.067-0.172,0.031-0.432-0.037-0.599
					c-0.303-0.735-1.237-1.282-0.812-2.093c2.009-0.606,4.179-2.698,4.658-5.848c0.086-0.547-0.024-2.084-0.113-2.576
					c-0.168-0.959-0.768-1.559-0.717-2.41c0.412-0.996,1.701-1.266,2.469-2.438c0.273-0.417,0.521-1.301,0.837-2.062
					c0.747-1.779,1.301-4.272,1.258-6.782c-0.047-2.627-0.791-4.522-1.822-5.753h-5.922c-0.232,1.685-0.334,3.354-0.285,5.019
					c0.023,0.883,0.285,1.656,0.266,2.523c-0.057,2.1-0.434,4.268-0.93,6.373c-0.686,2.924-1.379,5.783-2.174,8.859
					c-1.228,4.754-3.574,9.312-5.646,13.758c-1.508,3.24-3.359,5.855-5.365,8.865c-0.322,0.479-0.561,1.232-0.922,1.729
					c-0.393,0.534-0.975,0.854-1.336,1.36c-2.811,3.941-5.908,7.887-9.258,11.281c-2.021,2.07-4.798,4.137-6.055,5.745
					c-0.096,0.118-0.268,0.181-0.379,0.28c-0.877,0.773-1.473,1.434-2.16,1.891c-0.482,0.325-1.221,0.475-1.684,0.832
					c-0.578,0.446-1.013,1.215-1.328,1.496c-1.15,1.012-1.957,1.773-2.992,2.43c-0.967,0.613-1.979,0.818-2.99,1.349
					c-1.682,0.881-3.354,2.244-5.077,3.06c-1.329,0.637-2.714,0.821-3.971,1.364c-1.048,0.454-2.134,1.224-3.134,1.722
					c-2.241,1.12-4.092,1.791-6.414,2.211l-1.236,0.235c-0.605,0.125-1.23,0.236-1.816,0.438c-0.222,0.072-0.427,0.222-0.656,0.246
					c-0.324,0.035-0.702-0.088-1.016-0.186c-0.854-0.256-1.621-0.129-2.459,0.096c-0.684,0.178-1.324,0.15-2.021,0.144
					c-0.831,0-1.646,0.239-2.477,0.293c-1.086,0.063-2.169-0.063-3.255-0.013c-1.128,0.051-2.258,0.063-3.386,0.076
					c-0.855,0.012-1.704,0.121-2.557-0.061c-0.696-0.146-1.301-0.255-2.006-0.212c-0.267,0.017-0.91-0.171-1.012,0.216
					c-0.059,0.23-0.007,0.541-0.003,0.777c0.009,0.508-0.081,0.912-0.081,1.39v2.427c0.01,0.963-0.117,1.955,0.291,2.848
					L101.189,189.936z"/>
			</g>
		</g>
		<g>
			<g>
				<path fill="#636363" d="M7.698,99.212c-0.191,0.114-0.372,0.235-0.548,0.44c-0.241,0.269-0.541,0.478-0.701,0.818
					c-0.151,0.326-0.342,0.667-0.436,1.023c-0.327,1.176-0.419,2.743-0.607,3.415c-0.244,0.871-0.053,1.208-0.09,2.292
					c-0.027,0.84-0.131,1.909-0.003,2.585c0.131,0.699,0.653,1.736,0.716,1.904c0.241,0.668,0.371,0.927,0.674,1.322
					c0.833,1.055,1.892,1.237,2.365,2.364c-0.846,0.916-1.312,2.802-1.094,4.558c0.191,1.666,1.439,4.717,2.165,5.453
					c0.108,0.113,0.887,0.553,0.932,0.538c0.272-0.082,0.155,0.128,0.312,0.175c0.94,0.271,1.884,0.111,2.413,1.08
					c-0.641,1.485-1.734,2.432-1.563,4.51c0.079,0.916,0.574,2.307,1.163,3.59c0.582,1.283,1.254,2.451,1.59,3.011
					c0.134,0.221,0.19,0.547,0.35,0.743c0.072,0.096,0.667,0.381,0.785,0.48c0.978,0.872,1.907,1.676,2.737,2.079
					c-0.03,1.519-0.297,2.853,0.307,4.671c0.806,2.405,2.711,4.67,4.373,7.192c1.056,0.45,2.021,0.901,3.061,1.153
					c1.025,0.236,2.118,0.041,3.077,0.607c0.527,0.729-0.018,1.406,0.431,2.131c0.045,1.303,0.849,2.383,1.821,3.135
					c0.97,0.754,2.117,1.17,2.84,1.252c0.871,0.101,1.751-0.211,2.408,0.231c0.293,1.289-0.174,2.771,0.275,4.208
					c0.082,0.256,0.33,0.541,0.413,0.734c0.201,0.447,0.284,0.92,0.657,1.287c0.18,0.179,0.184,0.484,0.236,0.554
					c1.589,1.938,3.978,2.593,5.157,2.897c0.377,0.104,0.581,0.373,0.948,0.399c1.637,0.088,2.445-1.142,3.902-0.731
					c0.49,0.877,1.324,2.172,2.324,3.283c0.995,1.109,2.15,2.025,3.183,2.168c0.579,0.082,1.057-0.062,1.408-0.1
					c0.27-0.025,0.459,0.154,0.755,0.124c0.336-0.032,0.917-0.438,1.29-0.499c0.616-0.1,0.958-0.28,1.495,0.201
					c0.649,1.463,0.385,3.303,0.989,4.691c0.053,0.12,0.366,0.116,0.449,0.215c0.132,0.164-0.025,0.562,0.258,0.715
					c0.254,0.146,0.039,0.211,0.13,0.363c0.485,0.791,1.186,1.602,1.925,2.057c1.633,1.025,4.627,1.359,5.932,1.246
					c0.329-0.026,0.586-0.217,0.855-0.258c0.368-0.062,0.669,0.186,1.011,0.071c0.779-0.269,1.547-1.103,2.194-1.534
					c0.143-0.095,0.386-0.015,0.528-0.109c0.623-0.426,1.001-1.521,1.776-1.141c0.776,2.16,2.844,4.326,5.678,4.584
					c0.493,0.047,1.849-0.203,2.281-0.336c0.844-0.267,1.336-0.977,2.102-0.979c0.927,0.393,1.247,1.804,2.333,2.592
					c0.386,0.275,1.184,0.503,1.875,0.814c1.619,0.744,3.839,1.254,6.062,1.147c2.324-0.104,4.002-0.95,5.102-2.095v-6.596
					c-1.55-0.258-3.091-0.353-4.623-0.267c-0.807,0.043-1.51,0.356-2.306,0.36c-1.933,0.006-3.928-0.32-5.895-0.746
					c-2.717-0.596-5.396-1.15-8.278-1.745c-4.451-0.919-8.883-2.966-13.208-4.617c-3.144-1.207-5.796-2.831-8.833-4.534
					c-0.488-0.274-1.201-0.408-1.71-0.717c-0.548-0.34-0.934-0.922-1.451-1.234c-4.024-2.395-8.102-5.047-11.738-8.062
					c-2.213-1.812-4.557-4.45-6.21-5.519c-0.124-0.075-0.213-0.256-0.321-0.358c-0.84-0.812-1.531-1.341-2.061-2.001
					c-0.376-0.464-0.642-1.24-1.039-1.678c-0.5-0.555-1.255-0.883-1.558-1.176c-1.097-1.067-1.911-1.812-2.669-2.822
					c-0.708-0.948-1.059-2.018-1.695-3.027c-1.056-1.683-2.524-3.281-3.51-5.033c-0.761-1.356-1.127-2.838-1.781-4.125
					c-0.545-1.078-1.371-2.158-1.944-3.181c-1.287-2.301-2.099-4.252-2.716-6.748l-0.333-1.323
					c-0.169-0.652-0.327-1.322-0.563-1.949c-0.085-0.23-0.242-0.437-0.281-0.688c-0.056-0.354,0.017-0.782,0.077-1.13
					c0.165-0.96-0.021-1.781-0.276-2.681c-0.213-0.729-0.231-1.438-0.276-2.193c-0.051-0.909-0.316-1.781-0.408-2.684
					c-0.119-1.182-0.052-2.371-0.14-3.554c-0.092-1.229-0.141-2.458-0.181-3.688c-0.029-0.926-0.146-1.854,0.004-2.78
					c0.123-0.758,0.214-1.418,0.174-2.186c-0.017-0.289,0.151-0.986-0.196-1.096c-0.208-0.064-0.488-0.009-0.7-0.004
					c-0.455,0.006-0.819-0.088-1.248-0.09h-2.177c-0.863,0.012-1.757-0.133-2.554,0.328L7.698,99.212z"/>
			</g>
		</g>
		<g>
			<g>
				<path fill="#636363" d="M100.207,7.383c-0.101-0.215-0.209-0.414-0.389-0.612c-0.24-0.267-0.422-0.609-0.722-0.783
					c-0.288-0.172-0.587-0.387-0.901-0.497c-1.036-0.369-2.412-0.513-3-0.737c-0.758-0.294-1.062-0.089-2.011-0.168
					c-0.741-0.061-1.676-0.217-2.27-0.107c-0.62,0.117-1.553,0.644-1.707,0.709c-0.598,0.229-0.833,0.36-1.194,0.679
					c-0.977,0.86-1.197,2.027-2.227,2.479c-0.759-0.997-2.393-1.653-3.95-1.557c-1.479,0.073-4.268,1.167-4.991,1.886
					c-0.111,0.106-0.58,0.922-0.568,0.973c0.046,0.311-0.131,0.157-0.188,0.326c-0.332,1.012-0.29,2.077-1.209,2.55
					c-1.253-0.877-1.965-2.195-3.818-2.262c-1.643-0.08-5.102,1.535-6.166,2.136c-0.211,0.115-0.507,0.129-0.704,0.274
					c-0.091,0.066-0.428,0.679-0.534,0.793c-0.904,0.943-1.754,1.844-2.237,2.69c-1.337-0.27-2.467-0.775-4.165-0.417
					c-2.246,0.475-4.545,2.179-7.058,3.536c-0.58,1.075-1.15,2.047-1.556,3.138c-0.396,1.076-0.42,2.311-1.102,3.255
					c-0.735,0.443-1.234-0.283-1.955,0.076c-1.154-0.196-2.258,0.473-3.1,1.397c-0.848,0.925-1.436,2.085-1.644,2.865
					c-0.253,0.933-0.146,1.956-0.663,2.592c-1.195,0.07-2.406-0.722-3.76-0.507c-0.245,0.04-0.538,0.258-0.725,0.314
					c-0.437,0.128-0.868,0.137-1.263,0.468c-0.193,0.163-0.466,0.108-0.537,0.154c-2.013,1.371-3.043,3.866-3.539,5.098
					c-0.16,0.391-0.437,0.568-0.527,0.966c-0.388,1.772,0.547,2.889-0.084,4.407c-0.861,0.373-2.159,1.054-3.318,1.952
					c-1.161,0.894-2.179,2.004-2.483,3.115c-0.177,0.621-0.126,1.175-0.159,1.565c-0.024,0.3-0.211,0.48-0.236,0.811
					c-0.027,0.373,0.231,1.08,0.225,1.498c-0.017,0.689,0.093,1.103-0.422,1.606c-1.396,0.474-2.993-0.115-4.317,0.338
					c-0.114,0.042-0.166,0.389-0.269,0.462c-0.165,0.125-0.492-0.113-0.676,0.178c-0.164,0.259-0.192,0.012-0.338,0.089
					c-0.781,0.416-1.609,1.074-2.132,1.831c-1.167,1.669-1.893,4.966-1.964,6.437c-0.023,0.368,0.118,0.677,0.118,0.984
					c0.001,0.413-0.253,0.724-0.194,1.116c0.137,0.898,0.788,1.859,1.094,2.621c0.068,0.17-0.033,0.431,0.036,0.601
					c0.303,0.737,1.242,1.282,0.817,2.092c-2.009,0.605-4.182,2.696-4.661,5.849c-0.089,0.545,0.024,2.083,0.111,2.572
					c0.17,0.963,0.768,1.562,0.718,2.409c-0.415,1.003-1.703,1.269-2.47,2.441c-0.272,0.415-0.518,1.298-0.835,2.06
					c-0.747,1.786-1.3,4.278-1.257,6.787c0.046,2.624,0.792,4.521,1.819,5.748h5.924c0.233-1.684,0.334-3.352,0.286-5.017
					c-0.025-0.878-0.286-1.652-0.265-2.522c0.059-2.102,0.434-4.266,0.929-6.376c0.684-2.921,1.38-5.782,2.173-8.858
					c1.227-4.75,3.575-9.311,5.647-13.758c1.509-3.236,3.361-5.856,5.364-8.862c0.323-0.483,0.561-1.236,0.922-1.733
					c0.395-0.534,0.973-0.85,1.336-1.357c2.813-3.945,5.909-7.89,9.261-11.284c2.018-2.069,4.794-4.137,6.053-5.744
					c0.093-0.122,0.269-0.186,0.378-0.284c0.88-0.769,1.476-1.431,2.161-1.887c0.482-0.328,1.222-0.475,1.684-0.833
					c0.58-0.45,1.011-1.218,1.332-1.495c1.148-1.014,1.954-1.775,2.989-2.433c0.966-0.613,1.977-0.814,2.992-1.351
					c1.682-0.877,3.352-2.239,5.077-3.056c1.33-0.633,2.713-0.824,3.971-1.366c1.045-0.451,2.135-1.219,3.133-1.717
					c2.24-1.125,4.092-1.795,6.412-2.216l1.237-0.231c0.604-0.125,1.231-0.234,1.818-0.439c0.219-0.076,0.423-0.224,0.653-0.251
					c0.324-0.03,0.704,0.092,1.019,0.186c0.853,0.262,1.62,0.129,2.457-0.09c0.684-0.178,1.327-0.155,2.021-0.148
					c0.832,0,1.646-0.237,2.476-0.291c1.087-0.065,2.169,0.065,3.254,0.015c1.13-0.05,2.259-0.068,3.387-0.081
					c0.858-0.008,1.706-0.119,2.558,0.061c0.695,0.148,1.3,0.258,2.007,0.215c0.265-0.015,0.907,0.169,1.007-0.215
					c0.062-0.233,0.006-0.542,0.006-0.78c-0.01-0.504,0.08-0.914,0.08-1.391v-2.422c-0.01-0.963,0.117-1.96-0.291-2.847
					L100.207,7.383z"/>
			</g>
		</g>
		<g>
			<g>
				<path fill="#636363" d="M193.697,98.107c0.193-0.114,0.369-0.236,0.549-0.438c0.24-0.273,0.541-0.481,0.699-0.818
					c0.147-0.327,0.342-0.67,0.436-1.023c0.326-1.179,0.418-2.748,0.607-3.42c0.242-0.865,0.049-1.205,0.094-2.286
					c0.025-0.846,0.131-1.914,0-2.585c-0.131-0.703-0.656-1.735-0.721-1.909c-0.234-0.667-0.369-0.925-0.672-1.319
					c-0.832-1.057-1.89-1.24-2.365-2.367c0.85-0.913,1.311-2.802,1.094-4.553c-0.189-1.669-1.438-4.717-2.164-5.455
					c-0.105-0.113-0.887-0.555-0.932-0.538c-0.273,0.083-0.154-0.129-0.312-0.176c-0.94-0.265-1.885-0.11-2.411-1.079
					c0.641-1.487,1.735-2.431,1.562-4.507c-0.076-0.921-0.572-2.311-1.162-3.591c-0.582-1.284-1.256-2.453-1.59-3.012
					c-0.134-0.217-0.191-0.547-0.353-0.744c-0.07-0.091-0.666-0.379-0.783-0.481c-0.979-0.868-1.907-1.674-2.739-2.079
					c0.028-1.517,0.299-2.849-0.306-4.668c-0.807-2.409-2.711-4.67-4.373-7.194c-1.057-0.452-2.02-0.903-3.061-1.153
					c-1.025-0.237-2.117-0.041-3.076-0.608c-0.527-0.729,0.018-1.406-0.43-2.13c-0.049-1.302-0.85-2.383-1.82-3.134
					c-0.975-0.756-2.117-1.173-2.842-1.256c-0.873-0.098-1.75,0.216-2.411-0.229c-0.291-1.291,0.177-2.773-0.272-4.205
					c-0.082-0.262-0.33-0.542-0.414-0.735c-0.199-0.447-0.285-0.923-0.657-1.288c-0.181-0.18-0.183-0.492-0.237-0.557
					c-1.591-1.936-3.977-2.588-5.156-2.899c-0.375-0.098-0.582-0.369-0.947-0.395c-1.635-0.09-2.444,1.139-3.903,0.726
					c-0.487-0.87-1.323-2.169-2.323-3.276c-0.994-1.11-2.148-2.027-3.183-2.171c-0.579-0.083-1.06,0.064-1.41,0.1
					c-0.271,0.026-0.459-0.158-0.756-0.125c-0.335,0.035-0.918,0.438-1.289,0.499c-0.615,0.102-0.959,0.281-1.495-0.199
					c-0.648-1.463-0.384-3.305-0.988-4.691c-0.051-0.119-0.363-0.117-0.447-0.217c-0.135-0.163,0.022-0.557-0.258-0.716
					c-0.258-0.141-0.037-0.209-0.129-0.36c-0.488-0.788-1.187-1.601-1.926-2.058c-1.634-1.025-4.63-1.361-5.938-1.247
					c-0.326,0.027-0.584,0.221-0.853,0.262c-0.37,0.057-0.674-0.186-1.011-0.072c-0.779,0.269-1.549,1.099-2.197,1.535
					c-0.145,0.093-0.386,0.011-0.529,0.109c-0.619,0.425-1,1.518-1.771,1.139c-0.775-2.158-2.846-4.326-5.68-4.584
					c-0.493-0.047-1.852,0.202-2.281,0.338c-0.846,0.264-1.336,0.97-2.104,0.974c-0.925-0.394-1.246-1.804-2.328-2.592
					c-0.389-0.276-1.184-0.5-1.879-0.813c-1.619-0.743-3.84-1.256-6.061-1.15c-2.327,0.108-4.002,0.951-5.102,2.095v6.594
					c1.547,0.259,3.09,0.353,4.621,0.267c0.807-0.043,1.51-0.358,2.305-0.36c1.932-0.002,3.931,0.32,5.896,0.749
					c2.719,0.591,5.395,1.148,8.277,1.743c4.451,0.917,8.883,2.967,13.208,4.62c3.146,1.204,5.798,2.827,8.834,4.532
					c0.487,0.273,1.2,0.407,1.71,0.72c0.547,0.338,0.932,0.919,1.452,1.228c4.021,2.397,8.097,5.052,11.735,8.064
					c2.215,1.811,4.559,4.453,6.211,5.518c0.123,0.08,0.211,0.254,0.322,0.359c0.842,0.811,1.529,1.339,2.061,1.999
					c0.375,0.465,0.639,1.243,1.037,1.68c0.502,0.549,1.254,0.877,1.559,1.172c1.098,1.073,1.91,1.815,2.67,2.825
					c0.707,0.944,1.057,2.014,1.693,3.029c1.057,1.68,2.523,3.279,3.51,5.034c0.758,1.353,1.129,2.834,1.783,4.127
					c0.545,1.075,1.369,2.155,1.941,3.179c1.289,2.297,2.098,4.249,2.715,6.742l0.336,1.327c0.17,0.651,0.33,1.323,0.563,1.947
					c0.084,0.233,0.24,0.441,0.279,0.692c0.057,0.355-0.019,0.779-0.078,1.13c-0.162,0.959,0.022,1.781,0.276,2.682
					c0.213,0.73,0.232,1.437,0.275,2.193c0.051,0.91,0.316,1.781,0.408,2.683c0.119,1.183,0.053,2.371,0.141,3.551
					c0.092,1.228,0.142,2.459,0.18,3.688c0.031,0.932,0.146,1.854-0.004,2.782c-0.123,0.761-0.215,1.418-0.172,2.186
					c0.015,0.289-0.153,0.985,0.191,1.096c0.209,0.068,0.49,0.01,0.701,0.006c0.453-0.008,0.822,0.088,1.25,0.09h2.176
					c0.863-0.012,1.756,0.133,2.553-0.33L193.697,98.107z"/>
			</g>
		</g>
	</g>
</g>
</svg>
